<svg width="41" height="41" viewBox="0 0 41 41" fill="none" xmlns="http://www.w3.org/2000/svg">
<path d="M40.1458 16.2292H38.8646C38.6937 16.2292 38.5229 16.2292 38.3521 16.2292C35.9604 16.2292 34.5083 15.8021 33.5687 15.5458C33.9958 14.0937 35.1917 11.3604 36.8146 9.22499L37.6687 8.11457L36.3021 7.85832C35.4479 7.7729 34.6792 7.68749 33.825 7.68749C31.8604 7.68749 29.8958 7.85832 28.7854 8.19999C28.7 7.08957 28.1875 4.95415 28.1875 2.56249V1.70832H27.3333C25.1979 1.70832 21.9521 4.09999 20.5854 5.12499C19.1333 3.75832 15.8021 0.768738 13.7521 0.768738L13.6667 0.854154H12.8125V1.70832C12.8125 4.35624 12.3854 6.57707 12.1292 7.68749C10.8479 7.60207 8.28541 7.68749 5.46666 7.08957L4.27082 6.83332L4.44166 8.02915C5.03957 11.7021 6.32082 14.35 7.17499 15.7167C5.80832 16.1437 4.09999 17.1687 1.70832 18.9625L0.854156 19.7312L1.79374 20.4146C3.16041 21.3542 4.09999 22.0375 4.86874 22.55C5.72291 23.0625 5.72291 23.4042 6.40624 24.0021C4.52707 25.7104 2.98957 26.65 2.90416 26.65L1.79374 27.3333L2.98957 28.1021L6.83332 30.3229C6.74791 30.8354 6.49166 31.6896 6.23541 33.6542L5.97916 35.0208C5.97916 35.0208 11.1042 34.1667 13.6667 32.4583H27.3333C28.1021 32.8 30.75 35.0208 33.1417 35.0208H34.1667L33.9104 33.9958C33.5687 32.5437 33.3979 31.6896 33.3125 31.1771C34.5083 30.4083 37.925 28.2729 38.7792 26.4792L39.2917 25.625L38.3521 25.3687C37.4125 25.1125 36.1312 24.5146 35.4479 24.0021C36.6437 22.8917 38.5229 20.5 39.7187 17.5104L40.1458 16.2292Z" fill="#81D4FA"/>
<path d="M29.8958 23.9167C28.9897 23.9167 28.1206 24.2766 27.4799 24.9174C26.8391 25.5581 26.4792 26.4272 26.4792 27.3333C26.4792 28.2395 26.8391 29.1085 27.4799 29.7493C28.1206 30.39 28.9897 30.75 29.8958 30.75C30.802 30.75 31.671 30.39 32.3118 29.7493C32.9525 29.1085 33.3125 28.2395 33.3125 27.3333C33.3125 26.4272 32.9525 25.5581 32.3118 24.9174C31.671 24.2766 30.802 23.9167 29.8958 23.9167ZM11.1042 23.9167C10.198 23.9167 9.32897 24.2766 8.68822 24.9174C8.04747 25.5581 7.6875 26.4272 7.6875 27.3333C7.6875 28.2395 8.04747 29.1085 8.68822 29.7493C9.32897 30.39 10.198 30.75 11.1042 30.75C12.0103 30.75 12.8794 30.39 13.5201 29.7493C14.1609 29.1085 14.5208 28.2395 14.5208 27.3333C14.5208 26.4272 14.1609 25.5581 13.5201 24.9174C12.8794 24.2766 12.0103 23.9167 11.1042 23.9167Z" fill="#BCAAA4"/>
<path d="M20.5 9.39584C15.2896 9.39584 11.1042 14.0083 11.1042 20.6708V28.7854C11.1042 35.5333 15.2896 40.1458 20.5 40.1458C25.7104 40.1458 29.8958 35.5333 29.8958 28.8708V20.7563C29.8958 14.0083 25.7104 9.39584 20.5 9.39584Z" fill="#D7CCC8"/>
<path d="M21.4396 31.6042H16.9125H16.2292V32.3729C16.2292 33.3979 16.6562 34.5083 17.5958 34.6792C17.6812 35.7042 18.1937 36.7292 19.2187 36.7292C20.2437 36.7292 20.7562 35.7042 20.9271 34.6792C21.525 34.5083 22.2083 33.9104 22.2083 32.3729V31.6042H21.4396Z" fill="#43A047"/>
<path d="M14.5208 33.3125C14.1792 33.3125 13.8375 33.0562 13.7521 32.7146C13.5813 32.2875 13.8375 31.775 14.2646 31.6042C14.35 31.6042 16.9979 30.6646 20.5 30.6646C24.0021 30.6646 26.65 31.5187 26.7354 31.6042C27.1625 31.775 27.4188 32.2021 27.2479 32.7146C27.0771 33.1417 26.65 33.3979 26.1375 33.2271C26.1375 33.2271 23.6604 32.4583 20.4146 32.4583C17.1688 32.4583 14.6917 33.2271 14.6917 33.2271C14.6917 33.3125 14.6063 33.3125 14.5208 33.3125Z" fill="#8D6E63"/>
<path d="M18.7917 22.2083V26.0521C18.7917 26.9917 18.8771 29.8958 20.5 29.8958C22.1229 29.8958 22.2083 26.9917 22.2083 26.0521V22.2083H18.7917Z" fill="#EFEBE9"/>
<path d="M24.3438 17.9375C23.3243 17.9375 22.3467 18.3425 21.6258 19.0633C20.905 19.7842 20.5 20.7618 20.5 21.7812C20.5 22.8007 20.905 23.7783 21.6258 24.4992C22.3467 25.22 23.3243 25.625 24.3438 25.625C25.3632 25.625 26.3408 25.22 27.0617 24.4992C27.7825 23.7783 28.1875 22.8007 28.1875 21.7812C28.1875 20.7618 27.7825 19.7842 27.0617 19.0633C26.3408 18.3425 25.3632 17.9375 24.3438 17.9375Z" fill="#FAFAFA"/>
<path d="M16.6562 17.9375C15.6368 17.9375 14.6592 18.3425 13.9383 19.0633C13.2175 19.7842 12.8125 20.7618 12.8125 21.7812C12.8125 22.8007 13.2175 23.7783 13.9383 24.4992C14.6592 25.22 15.6368 25.625 16.6562 25.625C17.6757 25.625 18.6533 25.22 19.3742 24.4992C20.095 23.7783 20.5 22.8007 20.5 21.7812C20.5 20.7618 20.095 19.7842 19.3742 19.0633C18.6533 18.3425 17.6757 17.9375 16.6562 17.9375Z" fill="#FAFAFA"/>
<path d="M24.7708 20.5C24.5443 20.5 24.327 20.59 24.1668 20.7502C24.0067 20.9104 23.9167 21.1276 23.9167 21.3542C23.9167 21.5807 24.0067 21.798 24.1668 21.9582C24.327 22.1183 24.5443 22.2083 24.7708 22.2083C24.9974 22.2083 25.2146 22.1183 25.3748 21.9582C25.535 21.798 25.625 21.5807 25.625 21.3542C25.625 21.1276 25.535 20.9104 25.3748 20.7502C25.2146 20.59 24.9974 20.5 24.7708 20.5ZM16.2292 21.3542C16.0026 21.3542 15.7854 21.4442 15.6252 21.6043C15.465 21.7645 15.375 21.9818 15.375 22.2083C15.375 22.4349 15.465 22.6521 15.6252 22.8123C15.7854 22.9725 16.0026 23.0625 16.2292 23.0625C16.4557 23.0625 16.673 22.9725 16.8332 22.8123C16.9933 22.6521 17.0833 22.4349 17.0833 22.2083C17.0833 21.9818 16.9933 21.7645 16.8332 21.6043C16.673 21.4442 16.4557 21.3542 16.2292 21.3542Z" fill="#212121"/>
<path d="M20.5 18.7917C19.3042 18.7917 18.2792 18.5354 17.3396 18.2792C16.9125 18.1937 16.4 18.0229 16.0583 18.0229C14.6917 17.8521 13.8375 18.0229 13.8375 18.0229C13.4104 18.1083 12.8979 17.8521 12.8125 17.425C12.7271 16.9979 12.9833 16.5708 13.4104 16.4C13.4958 16.4 14.6063 16.1437 16.3146 16.4C16.7417 16.4854 17.2542 16.5708 17.7667 16.7417C18.6208 16.9979 19.475 17.1687 20.4146 17.1687C21.3542 17.1687 22.2083 16.9125 23.0625 16.7417C23.575 16.5708 24.0875 16.4854 24.5146 16.4C26.2229 16.1437 27.3333 16.4 27.4188 16.4C27.8458 16.4854 28.1875 16.9125 28.0167 17.425C27.9313 17.8521 27.4188 18.1083 26.9917 18.0229C26.9917 18.0229 26.1375 17.8521 24.7708 18.0229C24.4292 18.1083 24.0021 18.1937 23.4896 18.2792C22.7208 18.5354 21.6958 18.7917 20.5 18.7917Z" fill="#64B5F6"/>
</svg>
