<svg width="25" height="25" viewBox="0 0 25 25" fill="none" xmlns="http://www.w3.org/2000/svg">
<path d="M12.5 1.5625C18.2531 1.5625 22.9166 6.22604 22.9166 11.9792C22.9166 17.7323 18.2531 22.3958 12.5 22.3958C6.74686 22.3958 2.08331 17.7323 2.08331 11.9792C2.08331 8.85417 3.64581 7.8125 3.64581 7.8125C4.68748 3.125 8.22238 1.5625 12.5 1.5625Z" fill="#6D4C41"/>
<path d="M20.0521 14.5833C19.4305 14.5833 18.8344 14.8303 18.3948 15.2698C17.9553 15.7093 17.7084 16.3055 17.7084 16.9271C17.7084 17.5487 17.9553 18.1448 18.3948 18.5844C18.8344 19.0239 19.4305 19.2708 20.0521 19.2708C20.6737 19.2708 21.2698 19.0239 21.7094 18.5844C22.1489 18.1448 22.3959 17.5487 22.3959 16.9271C22.3959 16.3055 22.1489 15.7093 21.7094 15.2698C21.2698 14.8303 20.6737 14.5833 20.0521 14.5833ZM4.94794 14.5833C4.32634 14.5833 3.73019 14.8303 3.29066 15.2698C2.85112 15.7093 2.60419 16.3055 2.60419 16.9271C2.60419 17.5487 2.85112 18.1448 3.29066 18.5844C3.73019 19.0239 4.32634 19.2708 4.94794 19.2708C5.56954 19.2708 6.16568 19.0239 6.60522 18.5844C7.04476 18.1448 7.29169 17.5487 7.29169 16.9271C7.29169 16.3055 7.04476 15.7093 6.60522 15.2698C6.16568 14.8303 5.56954 14.5833 4.94794 14.5833Z" fill="#FFD391"/>
<path d="M12.5 6.25C10.1517 6.25 7.89962 7.18285 6.23914 8.84333C4.57866 10.5038 3.64581 12.7559 3.64581 15.1042C3.64581 17.4524 4.57866 19.7045 6.23914 21.365C7.89962 23.0255 10.1517 23.9583 12.5 23.9583C14.8483 23.9583 17.1003 23.0255 18.7608 21.365C20.4213 19.7045 21.3541 17.4524 21.3541 15.1042C21.3541 12.7559 20.4213 10.5038 18.7608 8.84333C17.1003 7.18285 14.8483 6.25 12.5 6.25Z" fill="#FFD391"/>
<path d="M14.5495 21.0552C14.387 20.4651 13.5349 19.7917 12.5 19.7917C11.4651 19.7917 10.613 20.4651 10.4505 21.0552C10.4302 21.1167 10.4167 21.1818 10.4167 21.25C10.4167 21.5953 10.6963 21.875 11.0417 21.875C11.4583 21.875 11.6667 21.3542 12.5 21.3542C13.3333 21.3542 13.5417 21.875 13.9583 21.875C14.3036 21.875 14.5833 21.5953 14.5833 21.25C14.5833 21.1818 14.5698 21.1167 14.5495 21.0552Z" fill="#BF360C"/>
<path d="M13.2344 18.4427C13.0312 18.6458 12.7656 18.75 12.5 18.75C12.2344 18.75 11.9687 18.6458 11.7656 18.4427L10.9844 17.6615L12.4531 16.1927L13.2344 16.974C13.6458 17.3802 13.6458 18.0365 13.2344 18.4427Z" fill="#FCF5EA"/>
<path d="M16.6667 11.4583C16.2563 11.4583 15.8499 11.5392 15.4708 11.6962C15.0916 11.8533 14.7472 12.0834 14.457 12.3736C14.1668 12.6638 13.9366 13.0083 13.7796 13.3874C13.6225 13.7666 13.5417 14.173 13.5417 14.5833C13.5417 14.9937 13.6225 15.4001 13.7796 15.7792C13.9366 16.1584 14.1668 16.5029 14.457 16.793C14.7472 17.0832 15.0916 17.3134 15.4708 17.4705C15.8499 17.6275 16.2563 17.7083 16.6667 17.7083C17.0771 17.7083 17.4834 17.6275 17.8626 17.4705C18.2417 17.3134 18.5862 17.0832 18.8764 16.793C19.1666 16.5029 19.3968 16.1584 19.5538 15.7792C19.7108 15.4001 19.7917 14.9937 19.7917 14.5833C19.7917 14.173 19.7108 13.7666 19.5538 13.3874C19.3968 13.0083 19.1666 12.6638 18.8764 12.3736C18.5862 12.0834 18.2417 11.8533 17.8626 11.6962C17.4834 11.5392 17.0771 11.4583 16.6667 11.4583ZM8.33334 11.4583C7.92296 11.4583 7.5166 11.5392 7.13746 11.6962C6.75832 11.8533 6.41382 12.0834 6.12363 12.3736C5.83345 12.6638 5.60327 13.0083 5.44622 13.3874C5.28917 13.7666 5.20834 14.173 5.20834 14.5833C5.20834 14.9937 5.28917 15.4001 5.44622 15.7792C5.60327 16.1584 5.83345 16.5029 6.12363 16.793C6.41382 17.0832 6.75832 17.3134 7.13746 17.4705C7.5166 17.6275 7.92296 17.7083 8.33334 17.7083C8.74372 17.7083 9.15009 17.6275 9.52923 17.4705C9.90837 17.3134 10.2529 17.0832 10.5431 16.793C10.8332 16.5029 11.0634 16.1584 11.2205 15.7792C11.3775 15.4001 11.4583 14.9937 11.4583 14.5833C11.4583 14.173 11.3775 13.7666 11.2205 13.3874C11.0634 13.0083 10.8332 12.6638 10.5431 12.3736C10.2529 12.0834 9.90837 11.8533 9.52923 11.6962C9.15009 11.5392 8.74372 11.4583 8.33334 11.4583Z" fill="#FAFAFA"/>
<path d="M16.6667 14.5833C16.5285 14.5833 16.3961 14.6382 16.2984 14.7359C16.2007 14.8336 16.1458 14.966 16.1458 15.1042C16.1458 15.2423 16.2007 15.3748 16.2984 15.4725C16.3961 15.5701 16.5285 15.625 16.6667 15.625C16.8048 15.625 16.9373 15.5701 17.035 15.4725C17.1326 15.3748 17.1875 15.2423 17.1875 15.1042C17.1875 14.966 17.1326 14.8336 17.035 14.7359C16.9373 14.6382 16.8048 14.5833 16.6667 14.5833ZM8.33333 14.5833C8.1952 14.5833 8.06272 14.6382 7.96505 14.7359C7.86737 14.8336 7.8125 14.966 7.8125 15.1042C7.8125 15.2423 7.86737 15.3748 7.96505 15.4725C8.06272 15.5701 8.1952 15.625 8.33333 15.625C8.47147 15.625 8.60394 15.5701 8.70162 15.4725C8.79929 15.3748 8.85417 15.2423 8.85417 15.1042C8.85417 14.966 8.79929 14.8336 8.70162 14.7359C8.60394 14.6382 8.47147 14.5833 8.33333 14.5833Z" fill="#212121"/>
</svg>
