<svg width="25" height="30" viewBox="0 0 25 30" fill="none" xmlns="http://www.w3.org/2000/svg">
<path d="M20.8779 0.80629H4.38967C2.05384 0.80629 0.267609 2.91472 0.267609 5.67191V25.1344C0.267609 27.8916 2.05384 30 4.38967 30H20.8779C23.2138 30 25 27.8916 25 25.1344V5.67191C25 2.91472 23.2138 0.80629 20.8779 0.80629ZM12.6338 10.5375C14.9696 10.5375 16.7559 12.646 16.7559 15.4031C16.7559 18.1603 14.9696 20.2688 12.6338 20.2688C10.298 20.2688 8.51173 18.1603 8.51173 15.4031C8.51173 12.646 10.298 10.5375 12.6338 10.5375ZM17.8551 7.29378C17.8551 6.15847 18.6795 5.34753 19.5039 5.34753C20.3283 5.34753 21.1527 6.32066 21.1527 7.29378C21.1527 8.2669 20.4657 9.24003 19.5039 9.24003C18.5421 9.24003 17.8551 8.42909 17.8551 7.29378ZM20.8779 26.7562H4.38967C3.56526 26.7562 3.01565 26.1075 3.01565 25.1344V15.4031H5.76369C5.76369 19.9444 8.78654 23.5125 12.6338 23.5125C16.4811 23.5125 19.5039 19.9444 19.5039 15.4031H22.2519V25.1344C22.2519 26.1075 21.7023 26.7562 20.8779 26.7562Z" fill="#305C82"/>
</svg>
