<?xml version="1.0" encoding="iso-8859-1"?>
<!-- Generator: Adobe Illustrator 19.0.0, SVG Export Plug-In . SVG Version: 6.00 Build 0)  -->
<svg version="1.1" id="Capa_1" xmlns="http://www.w3.org/2000/svg" xmlns:xlink="http://www.w3.org/1999/xlink" x="0px" y="0px"
	 viewBox="0 0 512 512" style="enable-background:new 0 0 512 512;" xml:space="preserve">
<g>
	<path style="fill:#FF623F;" d="M280.632,93.825c0,8.304-6.74,15.044-15.044,15.044H15.044C6.73,108.869,0,102.129,0,93.825
		s6.73-15.044,15.044-15.044h250.544C273.892,78.781,280.632,85.521,280.632,93.825z"/>
	<path style="fill:#FF623F;" d="M310.419,157.642c0,8.304-6.74,15.044-15.044,15.044H15.044C6.73,172.686,0,165.946,0,157.642
		c0-8.314,6.73-15.044,15.044-15.044h280.331C303.68,142.598,310.419,149.327,310.419,157.642z"/>
	<path style="fill:#FF623F;" d="M268.467,220.717c0,8.304-6.73,15.044-15.044,15.044H15.044C6.73,235.761,0,229.021,0,220.717
		c0-8.314,6.73-15.044,15.044-15.044h238.378C261.737,205.673,268.467,212.402,268.467,220.717z"/>
	<path style="fill:#FF623F;" d="M302.145,284.634c0,8.304-6.73,15.044-15.044,15.044H15.044C6.73,299.678,0,292.938,0,284.634
		c0-8.304,6.73-15.044,15.044-15.044h272.057C295.415,269.59,302.145,276.33,302.145,284.634z"/>
	<path style="fill:#FF623F;" d="M205.863,347.709c0,8.304-6.73,15.044-15.044,15.044H15.044C6.73,362.753,0,356.013,0,347.709
		c0-8.314,6.73-15.044,15.044-15.044h175.775C199.133,332.665,205.863,339.394,205.863,347.709z"/>
	<path style="fill:#FF623F;" d="M234.948,411.766c0,8.314-6.73,15.044-15.044,15.044H15.044C6.73,426.81,0,420.081,0,411.766
		c0-8.304,6.73-15.044,15.044-15.044h204.86C228.219,396.722,234.948,403.462,234.948,411.766z"/>
</g>
<path style="fill:#B3FFFF;" d="M512,364.538c0,13.229-5.155,25.675-14.513,35.033l-74.027,74.027
	c-0.491,0.702-1.043,1.384-1.675,2.016c-8.826,8.826-20.169,13.6-31.733,14.362c-1.063,0.08-2.146,0.14-3.229,0.15h-0.411
	c-13.229,0-25.675-5.155-35.023-14.513c-0.632-0.632-1.183-1.304-1.685-2.016l-74.027-74.037
	c-9.357-9.347-14.513-21.794-14.513-35.023s5.155-25.675,14.513-35.033c9.357-9.357,21.794-14.502,35.023-14.502
	c9.568,0,18.715,2.698,26.588,7.733V71.409c0-27.31,22.225-49.535,49.535-49.535c27.32,0,49.535,22.225,49.535,49.535v251.015
	c7.763-4.824,16.739-7.422,26.106-7.422c13.229,0,25.675,5.145,35.023,14.502C506.845,338.863,512,351.309,512,364.538z"/>
<path style="fill:#51FAFF;" d="M512,364.538c0,13.229-5.155,25.675-14.513,35.033l-74.027,74.027
	c-0.491,0.702-1.043,1.384-1.675,2.016c-8.826,8.826-20.169,13.6-31.733,14.362c-1.063,0.08-2.146,0.14-3.229,0.15V21.874
	c27.32,0,49.535,22.225,49.535,49.535v251.015c7.763-4.824,16.739-7.422,26.106-7.422c13.229,0,25.675,5.145,35.023,14.502
	C506.845,338.863,512,351.309,512,364.538z"/>
<g>
	<path style="fill:#FF3200;" d="M190.819,362.753h-39.746v-30.088h39.746c8.314,0,15.044,6.73,15.044,15.044
		C205.863,356.013,199.133,362.753,190.819,362.753z"/>
	<path style="fill:#FF3200;" d="M234.948,411.766c0,8.314-6.73,15.044-15.044,15.044h-68.832v-30.088h68.832
		C228.219,396.722,234.948,403.462,234.948,411.766z"/>
	<path style="fill:#FF3200;" d="M253.422,235.761h-102.35v-30.088h102.35c8.314,0,15.044,6.73,15.044,15.044
		C268.467,229.021,261.737,235.761,253.422,235.761z"/>
	<path style="fill:#FF3200;" d="M265.588,108.869H151.073V78.781h114.515c8.304,0,15.044,6.74,15.044,15.044
		S273.892,108.869,265.588,108.869z"/>
	<path style="fill:#FF3200;" d="M302.145,284.634c0,8.304-6.73,15.044-15.044,15.044H151.073V269.59h136.029
		C295.415,269.59,302.145,276.33,302.145,284.634z"/>
	<path style="fill:#FF3200;" d="M310.419,157.642c0,8.304-6.74,15.044-15.044,15.044H151.073v-30.088h144.303
		C303.68,142.598,310.419,149.327,310.419,157.642z"/>
</g>
<g>
</g>
<g>
</g>
<g>
</g>
<g>
</g>
<g>
</g>
<g>
</g>
<g>
</g>
<g>
</g>
<g>
</g>
<g>
</g>
<g>
</g>
<g>
</g>
<g>
</g>
<g>
</g>
<g>
</g>
</svg>
