<?xml version="1.0" encoding="iso-8859-1"?>
<!-- Generator: Adobe Illustrator 19.0.0, SVG Export Plug-In . SVG Version: 6.00 Build 0)  -->
<svg version="1.1" id="Capa_1" xmlns="http://www.w3.org/2000/svg" xmlns:xlink="http://www.w3.org/1999/xlink" x="0px" y="0px"
	 viewBox="0 0 512 512" style="enable-background:new 0 0 512 512;" xml:space="preserve">
<g>
	<path style="fill:#66FFAF;" d="M280.632,418.175c0-8.304-6.74-15.044-15.044-15.044H15.044C6.73,403.131,0,409.871,0,418.175
		c0,8.304,6.73,15.044,15.044,15.044h250.544C273.892,433.219,280.632,426.479,280.632,418.175z"/>
	<path style="fill:#66FFAF;" d="M310.419,354.358c0-8.304-6.74-15.044-15.044-15.044H15.044C6.73,339.314,0,346.054,0,354.358
		c0,8.314,6.73,15.044,15.044,15.044h280.331C303.68,369.402,310.419,362.672,310.419,354.358z"/>
	<path style="fill:#66FFAF;" d="M268.467,291.283c0-8.304-6.73-15.044-15.044-15.044H15.044C6.73,276.239,0,282.979,0,291.283
		c0,8.314,6.73,15.044,15.044,15.044h238.378C261.737,306.327,268.467,299.598,268.467,291.283z"/>
	<path style="fill:#66FFAF;" d="M302.145,227.366c0-8.304-6.73-15.044-15.044-15.044H15.044C6.73,212.322,0,219.062,0,227.366
		c0,8.304,6.73,15.044,15.044,15.044h272.057C295.415,242.41,302.145,235.67,302.145,227.366z"/>
	<path style="fill:#66FFAF;" d="M205.863,164.291c0-8.304-6.73-15.044-15.044-15.044H15.044C6.73,149.247,0,155.987,0,164.291
		c0,8.314,6.73,15.044,15.044,15.044h175.775C199.133,179.335,205.863,172.606,205.863,164.291z"/>
	<path style="fill:#66FFAF;" d="M234.948,100.234c0-8.314-6.73-15.044-15.044-15.044H15.044C6.73,85.19,0,91.919,0,100.234
		c0,8.304,6.73,15.044,15.044,15.044h204.86C228.219,115.278,234.948,108.538,234.948,100.234z"/>
</g>
<path style="fill:#B3FFFF;" d="M512,147.462c0-13.229-5.155-25.675-14.513-35.033l-74.027-74.027
	c-0.491-0.702-1.043-1.384-1.675-2.016c-8.826-8.826-20.169-13.6-31.733-14.362c-1.063-0.08-2.146-0.14-3.229-0.15h-0.411
	c-13.229,0-25.675,5.155-35.023,14.513c-0.632,0.632-1.183,1.304-1.685,2.016l-74.027,74.037
	c-9.357,9.347-14.513,21.794-14.513,35.023s5.155,25.675,14.513,35.033c9.357,9.357,21.794,14.503,35.023,14.503
	c9.568,0,18.715-2.698,26.588-7.733v251.326c0,27.31,22.225,49.535,49.535,49.535c27.32,0,49.535-22.225,49.535-49.535V189.575
	c7.763,4.824,16.739,7.422,26.106,7.422c13.229,0,25.675-5.145,35.023-14.503C506.845,173.137,512,160.691,512,147.462z"/>
<path style="fill:#51FAFF;" d="M512,147.462c0-13.229-5.155-25.675-14.513-35.033l-74.027-74.027
	c-0.491-0.702-1.043-1.384-1.675-2.016c-8.826-8.826-20.169-13.6-31.733-14.362c-1.063-0.08-2.146-0.14-3.229-0.15v468.252
	c27.32,0,49.535-22.225,49.535-49.535V189.575c7.763,4.824,16.739,7.422,26.106,7.422c13.229,0,25.675-5.145,35.023-14.503
	C506.845,173.137,512,160.691,512,147.462z"/>
<g>
	<path style="fill:#48E57C;" d="M190.819,149.247h-39.746v30.088h39.746c8.314,0,15.044-6.73,15.044-15.044
		C205.863,155.987,199.133,149.247,190.819,149.247z"/>
	<path style="fill:#48E57C;" d="M234.948,100.234c0-8.314-6.73-15.044-15.044-15.044h-68.832v30.088h68.832
		C228.219,115.278,234.948,108.538,234.948,100.234z"/>
	<path style="fill:#48E57C;" d="M253.422,276.239h-102.35v30.088h102.35c8.314,0,15.044-6.73,15.044-15.044
		C268.467,282.979,261.737,276.239,253.422,276.239z"/>
	<path style="fill:#48E57C;" d="M265.588,403.131H151.073v30.088h114.515c8.304,0,15.044-6.74,15.044-15.044
		C280.632,409.871,273.892,403.131,265.588,403.131z"/>
	<path style="fill:#48E57C;" d="M302.145,227.366c0-8.304-6.73-15.044-15.044-15.044H151.073v30.088h136.029
		C295.415,242.41,302.145,235.67,302.145,227.366z"/>
	<path style="fill:#48E57C;" d="M310.419,354.358c0-8.304-6.74-15.044-15.044-15.044H151.073v30.088h144.303
		C303.68,369.402,310.419,362.672,310.419,354.358z"/>
</g>
<g>
</g>
<g>
</g>
<g>
</g>
<g>
</g>
<g>
</g>
<g>
</g>
<g>
</g>
<g>
</g>
<g>
</g>
<g>
</g>
<g>
</g>
<g>
</g>
<g>
</g>
<g>
</g>
<g>
</g>
</svg>
