<svg width="80" height="41" viewBox="0 0 80 41" fill="none" xmlns="http://www.w3.org/2000/svg">
<g clip-path="url(#clip0)">
<path d="M54.6834 35.2913C54.7153 34.5567 54.599 33.9112 54.3687 33.3005C54.1339 32.6786 54.0165 32.0068 54.1934 31.266L54.2214 31.0975C54.3253 30.43 54.2778 29.8133 53.9956 29.3014C53.7839 28.9161 53.7259 28.4742 53.7878 27.9658C53.8696 27.2976 53.8427 26.6781 53.6125 26.0791C53.4132 25.5592 53.3787 24.9853 53.5371 24.3703C53.671 23.8541 53.7584 23.2966 53.8432 22.7472C53.9092 22.3191 53.9097 21.8658 53.8173 21.4492C53.7423 21.1094 53.7619 20.8009 53.8083 20.4664C53.8578 20.1135 53.8853 19.7492 53.9123 19.3884C53.9332 19.1107 53.8803 18.8652 53.7619 18.6747C53.606 18.4249 53.5521 18.1139 53.578 17.7601C53.6091 17.3539 53.6539 16.9521 53.5327 16.5608C53.5111 16.4926 53.5237 16.3878 53.5271 16.3004C53.5571 15.5946 53.4552 14.9376 53.2968 14.2981C53.2059 13.9295 53.1675 13.5417 53.1915 13.1407C53.2375 12.3625 53.2095 11.5859 53.1321 10.8233C53.0487 10.003 52.9172 9.1993 52.8183 8.38339C52.7839 8.10121 52.7615 7.80434 52.7715 7.51866C52.7919 6.93598 52.8319 6.35427 52.8763 5.77424C52.9303 5.07529 53.0282 4.39747 53.2005 3.7528C53.3659 3.12913 53.5192 2.49495 53.6726 1.86162C53.7275 1.63274 53.7744 1.39603 53.8075 1.15484C53.8475 0.864826 53.8455 0.572152 53.7451 0.308439C53.6117 -0.0418739 53.4359 -0.107348 53.261 0.186165C53.1187 0.428054 52.9838 0.704219 52.8883 1.00641C52.7006 1.60043 52.4847 2.15066 52.2245 2.65304C52.0432 3.00335 51.9658 3.42096 51.9548 3.89788C51.9343 4.82473 51.8133 5.69309 51.4293 6.39442C51.3199 6.59448 51.224 6.81986 51.1356 7.05042C51.0467 7.27929 50.9533 7.51601 50.9028 7.7737C50.7824 8.38074 50.6515 8.99224 50.5901 9.62292C50.5087 10.4623 50.3828 11.2749 50.2554 12.0943C50.1496 12.7748 49.9687 13.3338 49.696 13.8249C49.5232 14.1358 49.4022 14.5045 49.3268 14.9115C49.2364 15.3989 49.1575 15.8916 49.082 16.387C49.048 16.6124 49.0245 16.8456 49.0121 17.077C48.9541 18.1846 48.9081 19.2941 48.8438 20.3991C48.8283 20.6611 48.8419 20.9521 48.7379 21.1897L48.6935 21.1217C48.5276 20.7224 48.5076 20.2603 48.4821 19.7886C48.4232 18.6826 48.3588 17.5794 48.3842 16.4656C48.3917 16.1293 48.3842 15.7921 48.3901 15.4558C48.3952 15.1806 48.3292 14.9762 48.2103 14.812C48.1649 14.75 48.118 14.6924 48.0654 14.6241C48.0749 14.4171 48.0844 14.2135 48.0935 14.0109C48.1149 13.5165 48.0764 13.0571 47.8936 12.6421C47.8282 12.4954 47.7997 12.263 47.8008 12.0708C47.8032 11.5747 47.8296 11.0776 47.8523 10.5822C47.8697 10.1716 47.7852 9.83795 47.6214 9.55591C47.5795 9.48512 47.525 9.42748 47.495 9.34451C47.4481 9.21525 47.3801 9.06583 47.3847 8.93139C47.3991 8.45181 47.4231 7.96873 47.4765 7.4988C47.5184 7.12834 47.6148 6.77803 47.6753 6.41289C47.7842 5.75241 47.898 5.09474 47.984 4.42475C48.028 4.08227 47.9305 3.8429 47.7656 3.71293C47.6078 3.58618 47.4759 3.61668 47.3496 3.91817C47.1322 4.43538 46.9289 4.97428 46.7441 5.52717C46.6627 5.77256 46.6292 6.07307 46.5928 6.35623C46.5323 6.83147 46.4674 7.30406 46.2646 7.66388C46.0452 8.05351 45.9254 8.52777 45.8475 9.04583C45.835 9.13144 45.8099 9.21175 45.781 9.33584C45.6441 8.71916 45.5882 8.65886 45.2915 8.78281C45.2809 8.69901 45.277 8.61073 45.2585 8.53295C45.1761 8.18445 45.0193 8.13031 44.8714 8.40886C44.8095 8.52427 44.7465 8.6569 44.716 8.80282C44.6016 9.35235 44.4863 9.90272 44.3968 10.4643C44.308 11.0277 44.263 11.6122 44.1766 12.1764C43.9858 13.4186 43.8454 14.6869 43.5392 15.8698C43.5017 16.0139 43.4876 16.1781 43.4708 16.3354C43.3819 17.1819 43.3954 18.024 43.4977 18.8652C43.6201 19.8662 43.6082 20.8725 43.5188 21.879C43.4618 22.5296 43.2436 23.0319 43.0083 23.5133C42.6356 24.2741 42.4728 25.1493 42.5192 26.1513C42.5416 26.6387 42.6007 27.1019 42.713 27.55C42.908 28.3238 42.9798 29.116 42.8035 29.9364C42.774 30.0728 42.7525 30.2179 42.7425 30.3619C42.716 30.7253 42.708 31.0818 42.8024 31.4373C42.856 31.6408 42.8799 31.8854 42.8808 32.1124C42.8844 33.0061 42.8724 33.899 42.8713 34.7925C42.8708 34.9506 42.8878 35.1132 42.9124 35.2661C42.9468 35.488 43.0207 35.6697 43.1562 35.7246C43.3029 35.784 43.3929 35.6163 43.4688 35.4357C43.6046 35.1115 43.7005 34.7532 43.7236 34.3504C43.7656 33.6263 43.9015 32.9573 44.0632 32.2942C44.1362 31.9921 44.1662 31.6452 44.1786 31.315C44.2026 30.6669 44.1212 30.0345 44.0442 29.4037C44.0252 29.2491 44.0113 29.0804 44.0267 28.9276C44.1032 28.1755 44.2676 27.4792 44.5948 26.9658C44.864 26.5403 44.9759 26.0598 44.9295 25.4467C44.9189 25.3008 44.9254 25.1505 44.9079 25.0081C44.8525 24.567 44.8855 24.1416 44.9419 23.7065C45.0188 23.1081 45.1057 22.5063 45.1342 21.8974C45.1816 20.8865 45.2805 19.8978 45.4164 18.9159C45.5113 18.2344 45.5128 17.5583 45.374 16.8848C45.2391 16.2296 45.2511 15.5658 45.3815 14.9028C45.4464 14.5716 45.4824 14.224 45.5448 13.8912C45.6137 13.5225 45.6617 13.1312 45.8576 12.7564C45.8735 12.9688 45.8955 13.1059 45.892 13.2395C45.8785 13.6781 45.861 14.1157 45.836 14.5508C45.8046 15.116 45.8736 15.6008 46.1603 15.9319C46.2876 16.0777 46.3531 16.2884 46.3776 16.5469C46.403 16.8064 46.4775 17.051 46.6048 17.1532C46.9065 17.3969 46.957 17.8502 46.985 18.3421L46.9925 18.4731C47.052 19.3483 47.1399 20.2018 47.3886 20.9949C47.4891 21.3147 47.5026 21.7209 47.5469 22.0904C47.5769 22.3324 47.5644 22.5989 47.6174 22.8216C47.7218 23.2644 47.7044 23.704 47.6779 24.1598C47.6234 25.1304 47.7732 25.6911 48.2648 25.8615C48.3862 25.9034 48.4541 26.0328 48.4656 26.252C48.4781 26.4695 48.4945 26.6869 48.5106 26.9045C48.5525 27.4723 48.6031 28.0384 48.8058 28.5153C48.9242 28.794 49.0755 28.9549 49.2829 28.8709C49.4537 28.801 49.5951 28.4961 49.614 28.125C49.632 27.7895 49.6476 27.4505 49.6365 27.116C49.6065 26.204 49.7595 25.3856 50.0077 24.5993C50.0787 24.3748 50.1346 24.1163 50.1545 23.8628C50.1905 23.4007 50.203 22.9309 50.211 22.4633C50.2255 21.6196 50.3124 20.8308 50.7005 20.2411L50.751 20.1432C51.0996 19.3081 51.297 18.4058 51.1746 17.3505C51.0812 16.5399 51.1616 15.7502 51.285 14.9692C51.309 14.8163 51.3449 14.6687 51.3759 14.5185C51.4183 14.6985 51.4183 14.8593 51.4183 15.0199C51.4189 15.5161 51.5058 15.9381 51.75 16.2342C51.8111 16.3084 51.8625 16.4098 51.9119 16.5093C52.0328 16.7548 52.0971 17.0317 52.0443 17.3602C51.9953 17.6702 51.9459 17.9795 51.8919 18.2878C51.787 18.888 51.6336 19.4767 51.5832 20.0899C51.5118 20.9599 51.5363 21.8448 51.7301 22.686C51.7695 22.8599 51.8095 23.0459 51.816 23.2303C51.829 23.654 51.8359 24.0811 51.8205 24.5039C51.7671 25.9295 51.9893 27.1944 52.5163 28.2899C52.6532 28.573 52.6651 28.8708 52.6143 29.2299C52.5448 29.7225 52.4984 30.2301 52.4763 30.736C52.4519 31.2793 52.5803 31.7056 52.8899 31.9135L52.9329 31.9923C52.9329 32.2683 52.9344 32.5608 52.9319 32.8525C52.9295 33.2403 53.0028 33.575 53.1707 33.8292C53.3025 34.0302 53.4379 34.2336 53.5872 34.3909C53.7396 34.5525 53.7855 34.7595 53.7635 35.053C53.7426 35.3282 53.7347 35.6059 53.7242 35.8838C53.7157 36.1168 53.7491 36.3222 53.878 36.4402C53.9974 36.5493 54.0848 36.4227 54.1742 36.3099L54.2226 36.3047L54.2546 36.366C54.4009 36.6237 54.4953 36.6672 54.6247 36.5379C54.7535 36.4087 54.7805 36.2201 54.7335 35.8916C54.7055 35.6959 54.6749 35.488 54.6834 35.2913Z" fill="#11B0C8"/>
<path d="M14.6964 36.9802C14.6475 36.4378 14.5207 35.9486 14.2988 35.5414C14.0321 35.048 13.8692 34.4776 13.8443 33.7839C13.8153 32.9871 13.5541 32.4621 13.1405 32.1826C13.0046 32.0901 12.9082 31.9651 12.8433 31.7484C12.7659 31.4898 12.6775 31.2384 12.6131 30.9702C12.5312 30.6304 12.3883 30.4016 12.196 30.3272C11.9716 30.2389 11.8728 30.0005 11.8233 29.6502C11.8048 29.5218 11.7799 29.396 11.7688 29.2658C11.6935 28.4263 11.4312 27.8113 11.0196 27.3867C10.8882 27.2505 10.8228 27.0609 10.7608 26.8259C10.6349 26.3498 10.52 25.8422 10.3342 25.4439C10.0694 24.8769 9.73629 24.4401 9.26573 24.7651L9.20629 24.7363C9.14941 24.5276 9.09789 24.2952 9.02597 24.0837C8.85013 23.5709 8.73525 23.5256 8.44053 23.8226L8.40013 23.827C8.37461 23.7343 8.34717 23.6321 8.31821 23.5299C8.21733 23.1771 8.12685 22.8127 8.01205 22.4738C7.90909 22.1697 7.78477 21.8938 7.54149 21.9138C7.47957 21.919 7.41509 21.8177 7.30573 21.7279C7.42813 21.5792 7.49149 21.4805 7.56445 21.4177C7.79173 21.2193 7.96357 20.931 8.04949 20.5117C8.08845 20.323 8.16093 20.2182 8.25829 20.1657C8.37765 20.102 8.50053 20.0453 8.62444 20.026C8.95813 19.9735 9.17941 19.6259 9.34173 19.1681C9.50909 18.6964 9.63245 18.1793 9.68445 17.6219C9.71093 17.3336 9.73989 17.0716 9.90973 16.8961C9.99013 16.8132 10.0401 16.5938 10.0696 16.4192C10.1056 16.1973 10.1211 15.957 10.1196 15.7264C10.1171 15.3254 10.1745 14.9901 10.3393 14.6913C10.6411 14.1489 10.7264 13.4779 10.656 12.7415C10.5991 12.1466 10.5632 11.5639 10.6896 10.9691C10.8399 10.2649 10.744 9.6386 10.3998 9.16434C10.2944 9.01926 10.2554 8.85949 10.2734 8.63677C10.2844 8.50652 10.2919 8.37459 10.2953 8.24281C10.3073 7.79121 10.3223 7.33961 10.3238 6.88717C10.3238 6.76307 10.2988 6.61632 10.2564 6.51755C9.95716 5.82308 9.71685 5.61085 9.29477 5.86855C9.20781 5.92185 9.12037 5.98047 9.03053 6.00481C8.88517 6.04664 8.83373 5.96466 8.81821 5.70864C8.80725 5.51991 8.80573 5.32783 8.78373 5.1426C8.73973 4.75395 8.61141 4.56523 8.38309 4.54424C8.30013 4.53627 8.21477 4.5434 8.13333 4.57138C7.88109 4.65784 7.66429 4.58453 7.45949 4.28039C7.31565 4.06466 7.13781 3.91441 6.96749 3.75898C6.67125 3.48813 6.36605 3.24708 6.07181 2.97007C5.89005 2.79716 5.70173 2.70622 5.49733 2.69321C5.39741 2.68621 5.29453 2.7107 5.19661 2.68006C4.87197 2.57793 4.60965 2.78498 4.36093 3.1248C4.08373 3.5031 3.80149 3.8716 3.51173 4.22023C3.13109 4.67883 2.71901 4.90854 2.25493 4.64917L2.15701 4.61419C1.96821 4.51024 1.79781 4.59586 1.62453 4.7373C1.34533 4.96618 1.11301 5.29285 0.914687 5.69731C0.798287 5.93584 0.679887 6.02663 0.500047 5.88254C0.340207 5.75578 0.247807 5.80825 0.171887 6.02761C-0.00987326 6.55266 -0.127313 7.42005 0.249807 8.04541C0.310767 8.14586 0.371727 8.24645 0.436207 8.33976C0.697487 8.71805 0.732847 9.19316 0.636447 9.73038C0.594527 9.96709 0.548047 10.2048 0.523087 10.4475C0.421647 11.4477 0.466207 12.3772 0.953727 13.0909C1.05557 13.2395 1.14253 13.4256 1.22397 13.6107C1.36981 13.9418 1.47973 14.2938 1.41333 14.7437C1.36333 15.0826 1.34189 15.4337 1.29293 15.7719C1.25141 16.0575 1.25141 16.3151 1.34789 16.5703C1.38237 16.6611 1.40685 16.7912 1.40085 16.8961C1.38493 17.1703 1.41837 17.4175 1.48581 17.6604C1.55829 17.9198 1.56421 18.1776 1.51733 18.4658C1.44037 18.9357 1.46989 19.3935 1.65917 19.7891C1.74005 19.9577 1.81301 20.1359 1.89389 20.3045C2.01429 20.5544 2.07373 20.8191 2.01725 21.1546C1.95333 21.5337 1.98677 21.8953 2.08469 22.2595C2.29253 23.0343 2.42741 23.8555 2.42941 24.7142C2.42989 25.2009 2.45637 25.71 2.28957 26.1618C2.14869 26.5419 2.22909 26.9252 2.37293 27.2151C2.57277 27.6187 2.66621 28.093 2.76605 28.5753C2.81301 28.8034 2.80205 28.9974 2.72861 29.1992C2.50829 29.8062 2.49629 30.4579 2.58573 31.1428C2.64869 31.6241 2.77253 32.0522 2.92237 32.4575C3.02925 32.7465 3.10965 33.0453 3.13965 33.3825C3.16469 33.669 3.22957 33.9092 3.35949 34.0996C3.40045 34.1599 3.44037 34.2613 3.44485 34.3513C3.47181 34.8281 3.53677 35.2983 3.45837 35.7875C3.37845 36.2845 3.44437 36.5483 3.70365 36.8182C3.87749 36.9989 3.94141 37.2559 3.95141 37.5773C3.95893 37.8253 3.94941 38.0762 3.95645 38.3242C3.97045 38.7627 4.04685 39.1584 4.24669 39.4521C4.33709 39.5849 4.43453 39.7211 4.56237 39.6267C4.69269 39.5324 4.74573 39.328 4.74821 39.0956C4.75165 38.8188 4.74421 38.5391 4.73373 38.2622C4.71573 37.7793 4.72573 37.3207 5.00949 37.048L5.04645 36.9894C5.34421 36.4733 5.37517 35.9315 5.16837 35.2903C5.01653 34.8186 4.94709 34.318 5.08293 33.7809C5.13637 33.5694 5.18093 33.3362 5.19037 33.1074C5.19885 32.8837 5.18733 32.6295 5.13197 32.434C5.02453 32.0566 4.88325 31.7072 4.74981 31.3525C4.54053 30.797 4.42213 30.2302 4.64741 29.5976L4.67837 29.478C4.89213 28.7958 4.91109 28.1144 4.66941 27.4392C4.59549 27.2329 4.58597 27.0347 4.66893 26.8269C4.82325 26.4442 4.79277 26.0616 4.67237 25.6702C4.60093 25.4396 4.53901 25.1967 4.48901 24.9504C4.39309 24.4786 4.48005 24.192 4.80125 23.9929C4.92861 24.2356 5.06597 24.5108 5.21085 24.7738C5.42613 25.1633 5.69389 25.3135 5.98965 25.1661C6.21245 25.0551 6.34429 25.2167 6.45269 25.5033C6.56805 25.8091 6.66597 26.1339 6.78437 26.4344C6.87877 26.6728 6.98165 26.9079 7.10157 27.1071C7.22693 27.3176 7.32485 27.2897 7.45021 27.0781C7.68301 26.6818 7.73293 26.6746 7.95525 27.0791C8.07717 27.3036 8.20853 27.4634 8.39237 27.4252C8.52973 27.3954 8.61717 27.4959 8.67157 27.7064C8.78797 28.1589 8.91285 28.6053 9.01973 29.0639C9.15365 29.6404 9.37493 29.8221 9.69413 29.5863C9.74005 29.5523 9.78509 29.513 9.83197 29.4797C10.0123 29.3522 10.0308 29.3459 10.1342 29.6516C10.2616 30.0281 10.378 30.4178 10.4848 30.8143C10.6282 31.343 10.864 31.6897 11.1822 31.7875C11.376 31.8478 11.4779 32.0068 11.5558 32.2819C11.5963 32.4261 11.6452 32.5642 11.6857 32.7083C11.8736 33.3748 12.0864 33.9968 12.5254 34.2441L12.6093 34.3384C12.8256 34.6005 13.03 34.872 13.0444 35.3962C13.0594 35.9171 13.1812 36.3869 13.2922 36.8621C13.3681 37.1863 13.4785 37.4475 13.6574 37.6152C13.8028 37.7523 13.9016 37.9567 13.9596 38.2329C14.015 38.4931 14.082 38.7473 14.1524 38.9953C14.2508 39.3396 14.4296 39.5537 14.555 39.4959C14.6854 39.4356 14.7543 39.1849 14.7478 38.7543C14.7453 38.5655 14.6899 38.356 14.7213 38.1924C14.8019 37.7741 14.7324 37.3785 14.6964 36.9802ZM7.07525 18.35C7.02333 18.4076 6.95733 18.4313 6.89589 18.4549C6.75949 18.5107 6.61717 18.5344 6.48477 18.6113C6.33493 18.6987 6.18653 18.8087 6.04869 18.945C5.94277 19.0507 5.84037 19.1913 5.76397 19.3546C5.65405 19.5913 5.52469 19.7556 5.34781 19.8796C5.28781 19.7915 5.23045 19.6874 5.16301 19.608C4.86725 19.2593 4.68845 19.2341 4.45221 19.5442C4.38773 19.6289 4.31229 19.6857 4.18493 19.8115C4.20893 19.5355 4.21541 19.3556 4.24189 19.1852C4.26637 19.0314 4.31629 18.8908 4.34877 18.7406C4.44869 18.2793 4.41821 18.0863 4.17741 17.8189C4.07853 17.7098 4.04101 17.5839 4.04357 17.3901C4.04757 17.0974 4.04509 16.8039 4.04405 16.5104C4.04309 16.078 3.94461 15.7548 3.71389 15.5599C3.55901 15.4288 3.54557 15.3345 3.58357 15.034C3.60749 14.8506 3.62749 14.6619 3.63949 14.4741C3.68197 13.8417 3.50117 13.4014 3.23541 13.0266C3.18997 12.9628 3.14349 12.8414 3.14501 12.7479C3.15101 12.2998 3.06557 11.8517 3.16605 11.4018C3.22949 11.1161 3.12605 10.8872 3.01517 10.7028C2.84133 10.4163 2.82085 10.0687 2.86381 9.69302C2.89925 9.37685 2.98221 9.28157 3.16357 9.32522C3.21301 9.33837 3.26501 9.34005 3.31237 9.36453C3.72405 9.58208 4.04821 9.30871 4.33493 8.81598C4.38237 8.73386 4.43229 8.65426 4.47877 8.57046C4.63613 8.28562 4.83045 8.18517 5.05029 8.22546C5.19213 8.25078 5.33197 8.3101 5.47341 8.32325C5.65621 8.34074 5.83909 8.32857 6.04285 8.32857C6.44245 9.59775 6.61381 9.74982 7.22925 9.35838C7.37709 9.61957 7.54341 9.85643 7.43501 10.3175C7.38557 10.5299 7.43053 10.7561 7.51693 10.9334C7.63581 11.1789 7.75469 11.4253 7.88509 11.6515C7.97349 11.8061 8.08141 11.9267 8.18285 12.0656C8.11789 12.2534 8.08693 12.353 8.05045 12.4447C7.90213 12.8195 7.87261 13.0816 8.03397 13.4047C8.25677 13.8493 8.13988 14.3176 8.12685 14.785L8.09541 14.9003C7.93661 15.2131 7.77469 15.5231 7.61637 15.8368C7.45957 16.1469 7.41261 16.5348 7.37661 16.9252C7.35565 17.1558 7.34821 17.3909 7.32717 17.6223C7.29949 17.9219 7.22709 18.1839 7.07525 18.35Z" fill="#11B0C8"/>
<path d="M79.835 18.0573C79.7176 17.9578 79.6053 18.0048 79.4953 18.0879C79.2121 18.302 78.9248 18.5037 78.6496 18.7458C78.4718 18.9012 78.2841 19.0742 78.1502 19.3206C77.7311 20.0945 77.1277 20.3757 76.6781 21.0599L76.6331 21.0982C76.2305 21.3821 75.8353 21.7079 75.4222 21.9359C75.0621 22.1343 74.6919 22.2538 74.4492 22.8566C74.4432 22.6995 74.4511 22.5719 74.4761 22.4548C74.5501 22.1098 74.5161 21.7918 74.4087 21.4912C74.3293 21.2676 74.2389 21.0554 74.16 20.8308C74.1219 20.7234 74.075 20.5976 74.076 20.4822C74.0801 20.1949 74.0071 19.9861 73.9152 19.7659C73.8562 19.6218 73.8078 19.4271 73.8048 19.2532C73.7893 18.3473 73.7918 17.4413 73.7818 16.5364C73.7767 16.0805 73.6644 15.7265 73.4357 15.4838C73.3692 15.413 73.2947 15.2908 73.2753 15.1685C73.1364 14.2835 72.8317 13.4894 72.8087 12.5417C72.8057 12.4412 72.7887 12.3381 72.7682 12.2438C72.6034 11.4926 72.445 10.737 72.2658 9.99718C72.1918 9.69135 72.077 9.41099 71.9645 9.1393C71.9215 9.03787 71.8157 8.91658 71.7666 8.94708C71.6948 8.98989 71.6148 9.15063 71.6003 9.28172C71.5744 9.52025 71.5898 9.77347 71.5953 10.0217C71.6093 10.7791 71.6268 11.5382 71.6437 12.3086C71.371 12.4152 71.305 12.7332 71.3205 13.114C71.3415 13.6234 71.3754 14.13 71.4085 14.6366C71.4274 14.9266 71.4699 15.2133 71.4749 15.5031C71.4839 16.0735 71.4784 16.6457 71.4729 17.2161C71.467 17.8556 71.5263 18.4741 71.6838 19.0506C71.8146 19.5344 71.896 20.0341 71.9095 20.567C71.917 20.844 71.9255 21.1227 71.9206 21.3997C71.916 21.6739 71.973 21.8896 72.0934 22.0497C72.1773 22.1606 72.2732 22.2434 72.4126 22.3903C72.3037 23.0812 72.2032 23.7898 72.0794 24.4867C71.961 25.1559 71.8006 25.7979 71.9101 26.5353C71.9599 26.8681 71.8835 27.0045 71.6937 27.1188C71.5754 27.1906 71.4515 27.2369 71.3346 27.3162C71.0314 27.5232 70.7226 27.7129 70.4309 27.9645C70.1797 28.1821 70.1652 28.4606 70.343 28.8441L70.3814 28.9411L70.3525 29.0232C70.296 29.0843 70.2381 29.1428 70.1786 29.1961C69.7995 29.5394 69.4933 30.0338 69.223 30.5999C69.0397 30.9842 69.0367 31.2428 69.1856 31.635C69.3589 32.0901 69.3549 32.2422 69.1257 32.6045C68.8469 33.0466 68.5611 33.4757 68.2744 33.901C68.1445 34.094 68.0346 34.3011 67.9747 34.5894C67.9547 34.6862 67.9063 34.8025 67.8549 34.8349C67.5511 35.0279 67.3613 35.4218 67.2134 35.8962C67.082 36.319 66.9062 36.6632 66.6605 36.886C66.5276 37.0055 66.3827 37.0869 66.2523 37.2145C65.6693 37.7849 65.1908 38.5885 64.7142 39.3887C64.6048 39.5723 64.5404 39.8491 64.4769 40.0998C64.4105 40.3592 64.3786 40.6371 64.5323 40.8598C64.6617 41.0467 64.8161 41.0477 64.9994 40.859L65.1018 40.7332C65.4414 40.2344 65.7757 39.7252 66.1208 39.2385C66.2488 39.0576 66.3925 38.8812 66.5458 38.7922C66.8456 38.6175 67.1557 38.4925 67.4654 38.3711C67.8001 38.2383 68.0913 37.999 68.3341 37.5534C68.6568 36.9594 68.9985 36.3968 69.3337 35.8229C69.3871 35.7321 69.4446 35.6404 69.5081 35.574C69.7248 35.3452 69.8831 35.0202 69.9741 34.6209C70.1349 33.9116 70.4026 33.3351 70.6799 32.7664C70.8043 32.5104 70.9421 32.272 71.058 32.0036C71.1315 31.8342 71.1989 31.6361 71.2279 31.4314C71.3198 30.7989 71.5266 30.3361 71.8343 29.9832C72.2609 29.4923 72.6794 28.9847 73.1041 28.4878C73.2898 28.2711 73.4258 27.9872 73.5266 27.6377C73.5901 27.4185 73.671 27.2089 73.761 27.0194C74.0193 26.4733 74.3504 26.1362 74.7416 25.9351C75.369 25.6128 75.815 24.8913 76.0972 23.8684C76.1712 23.6012 76.2835 23.4203 76.4195 23.2753C76.5113 23.1757 76.6117 23.0953 76.7131 23.029C77.0079 22.8349 77.2587 22.5284 77.4943 22.1676C77.6323 21.9562 77.7782 21.7475 77.9386 21.5981C78.424 21.1491 78.8527 20.5673 79.2498 19.9121C79.4811 19.5313 79.7019 19.1287 79.9171 18.7206C80.0553 18.4609 80.0159 18.2102 79.835 18.0573Z" fill="#11B0C8"/>
<path d="M39.0355 25.963C38.8961 25.3794 38.7722 24.7949 38.7947 24.1424C38.8102 23.6925 38.7882 23.2392 38.7977 22.7885C38.8052 22.4242 38.8132 22.0537 38.8596 21.7009C38.942 21.0754 39.0504 20.4587 39.1539 19.8419C39.2023 19.5545 39.1919 19.282 39.0849 19.0514C38.9331 18.7221 38.9166 18.3535 38.968 17.9726C39.032 17.5044 39.1179 17.0441 39.1889 16.5784C39.2143 16.4116 39.2433 16.2361 39.2383 16.0665C39.2308 15.7775 39.1654 15.51 39.0015 15.3922C38.8267 15.2654 38.6703 15.3834 38.5504 15.6184C38.468 15.7801 38.3821 15.9574 38.3376 16.1558C38.2587 16.5069 38.2023 16.8764 38.1503 17.2442C38.0489 17.9648 37.9569 18.6908 37.8606 19.4132L37.8271 19.5783C37.6303 20.1094 37.5619 20.7069 37.5159 21.321C37.4925 21.6397 37.396 21.8496 37.2247 22.0268C36.977 22.2847 36.7462 22.6122 36.5399 22.9659C36.344 23.3006 36.1872 23.705 36.0144 24.0798C36.0194 23.8239 36.0115 23.5642 36.0369 23.3163C36.1258 22.4549 36.2287 21.5971 36.3241 20.7358C36.3715 20.3061 36.4231 19.8745 36.454 19.4404C36.4695 19.2141 36.4675 18.9661 36.4306 18.7504C36.3846 18.4838 36.2917 18.2366 36.1043 18.2166C35.926 18.1957 35.8042 18.3659 35.7182 18.6238C35.6892 18.712 35.6637 18.8055 35.6417 18.8998C35.4219 19.8529 35.2036 20.8068 34.9699 21.8245C34.8919 21.2025 34.7466 20.7508 34.3475 20.9109C34.2076 20.5046 34.1731 20.0826 34.1257 19.6695C34.0878 19.3419 33.9983 19.0693 33.8679 18.8309C33.7671 18.6466 33.6392 18.6466 33.5183 18.7243C33.3949 18.8048 33.3119 18.9594 33.3119 19.2214C33.3119 19.439 33.2925 19.6564 33.2835 19.8747C33.2684 20.2372 33.2435 20.6007 33.2425 20.9632C33.242 21.3423 33.255 21.7241 33.2799 22.1014C33.3174 22.6658 33.1201 23.0362 32.9512 23.4853C32.8679 23.1882 32.7844 22.9489 32.7315 22.6894C32.6955 22.5157 32.7115 22.3122 32.6885 22.1279C32.652 21.843 32.5971 21.566 32.5601 21.2813C32.5182 20.9555 32.4842 20.6262 32.4522 20.2985C32.4367 20.1396 32.4412 19.9763 32.4247 19.8189C32.3448 19.059 32.2204 18.313 32.2189 17.5294C32.2184 17.2848 32.1984 17.0324 32.1625 16.7957C32.1215 16.5293 32.0081 16.3886 31.8922 16.4349C31.7439 16.4952 31.595 16.5825 31.5151 16.8313C31.4342 17.0847 31.3587 17.3476 31.3018 17.6201C31.2418 17.9076 31.2063 18.2106 31.1615 18.5076C31.1305 18.7155 31.064 18.844 30.9322 18.8326C30.6909 18.8135 30.5695 19.078 30.4836 19.4178C30.4232 19.659 30.3803 19.9141 30.3103 20.1464C30.1259 20.764 30.0795 21.3921 30.2319 22.0499C30.2838 22.2743 30.2958 22.5032 30.2474 22.7339C30.081 23.5278 30.0011 24.3787 29.7314 25.1065C29.6779 25.2506 29.631 25.4252 29.623 25.5931C29.609 25.8769 29.5711 26.2291 29.6455 26.4421C29.7799 26.8204 29.8054 27.196 29.7988 27.6083C29.7968 27.6948 29.8039 27.7856 29.8154 27.8695C29.8543 28.1386 29.9752 28.3306 30.1075 28.343C30.2534 28.3551 30.3433 28.2242 30.3978 27.8939C30.4382 27.6528 30.4867 27.4301 30.5941 27.2467C30.7191 27.0317 30.7455 26.7486 30.684 26.4718C30.6346 26.2447 30.672 26.0761 30.7435 25.9031C30.7975 25.773 30.8619 25.6517 30.9043 25.5119C30.9453 25.3748 30.9887 25.2183 30.9883 25.0707C30.9858 24.5781 31.1371 24.2269 31.2999 23.8451C31.3569 23.9211 31.3909 23.9937 31.4343 24.0207C31.6336 24.1403 31.7045 24.4295 31.76 24.7413C31.8384 25.1886 31.8989 25.6473 31.9968 26.0805C32.1307 26.6772 32.2915 27.2547 32.4434 27.8399L32.5053 27.9768C32.5883 28.1306 32.6856 28.1724 32.802 28.1034C32.9554 28.0152 33.0473 27.8326 33.0483 27.5566C33.0493 26.9732 33.0379 26.3887 33.0288 25.8045C33.0238 25.4776 33.0114 25.15 33.0014 24.7727C33.1777 24.9371 33.2471 25.124 33.2322 25.4052C33.2251 25.5354 33.2382 25.6707 33.2267 25.7991C33.1812 26.3039 33.369 26.5809 33.5579 26.8544C33.6303 26.9584 33.7202 26.9602 33.7891 26.8483C33.968 26.5566 34.1433 26.2577 34.1089 25.766C34.0994 25.6385 34.0974 25.4996 34.1154 25.3764C34.1848 24.9038 34.1594 24.4495 34.0539 24.0039C34.0189 23.8572 34.0035 23.7166 34.0559 23.5375C34.1778 23.7315 34.3047 23.8685 34.3791 24.0669C34.5545 24.5281 34.7093 25.0139 34.8622 25.4995C34.9831 25.8829 35.0855 26.2831 35.2028 26.67C35.2643 26.8718 35.3552 27.0315 35.5 27.008C35.6469 26.9835 35.7453 26.8456 35.7863 26.5852C35.8117 26.422 35.8492 26.2647 35.8862 26.0805L35.9187 26.1433L35.9287 26.2726C35.9491 26.8701 36.1344 27.2379 36.4476 27.4398C36.557 27.5096 36.6639 27.5935 36.7648 27.6923C37.1744 28.0931 37.6384 27.9437 37.9307 27.3087C37.9767 27.2092 38.0202 27.1061 38.0851 26.9585C38.1126 27.1804 38.1345 27.349 38.1531 27.5175C38.201 27.9343 38.3174 28.2845 38.4912 28.5737C38.6551 28.8462 38.8783 28.8663 39.0663 28.6436C39.2315 28.447 39.319 28.1937 39.3015 27.8295C39.2697 27.1798 39.1778 26.5613 39.0355 25.963ZM31.0531 22.0512C31.1984 21.3742 31.3353 20.74 31.4716 20.1049L31.5366 20.1337C31.5366 20.4674 31.5091 20.8098 31.5441 21.1322C31.5771 21.429 31.6775 21.7044 31.7629 22.051H31.0531V22.0512ZM37.5878 25.3619C37.5034 25.4842 37.4399 25.6511 37.36 25.7857C37.2231 26.0179 37.0518 25.9768 37.0248 25.6703C36.9994 25.3864 37.0433 25.0798 37.0703 24.7871C37.0967 24.5004 37.1647 24.2952 37.3455 24.1686C37.5069 24.0533 37.6343 23.7921 37.8206 23.5369C37.8626 24.243 37.9284 24.8666 37.5878 25.3619Z" fill="#11B0C8"/>
<path d="M27.2117 12.4474C27.0324 12.4999 26.8446 12.526 26.6782 12.6431C26.4784 12.7829 26.2801 12.969 26.1103 13.1995C25.6022 13.8896 25.1057 14.6076 24.6087 15.3231C24.4853 15.5013 24.3779 15.7205 24.1996 15.6909C24.0457 15.6656 23.9213 15.7713 23.8075 15.9311C23.6246 16.1861 23.4478 16.457 23.2629 16.7085C23.1779 16.8239 23.0861 16.9322 22.9877 17.0073C22.8224 17.1349 22.6495 17.2336 22.4777 17.3453C22.3623 16.9899 22.3528 16.6186 22.4657 16.2334C22.5117 16.078 22.5507 15.9094 22.5667 15.739C22.6141 15.2376 22.6785 14.7379 22.5107 14.247C22.4603 14.1002 22.4772 13.881 22.4682 13.6932C22.4562 13.4469 22.4877 13.1655 22.4312 12.9594C22.3363 12.6161 22.3712 12.3165 22.4337 11.9959C22.4576 11.871 22.4837 11.7469 22.5031 11.6203C22.5896 11.0621 22.6175 10.4961 22.5515 9.92569C22.4791 9.29319 22.1679 9.09579 21.8722 9.48807C21.8187 9.55803 21.7658 9.62784 21.7173 9.69163C21.4206 9.56054 21.3636 9.57453 21.2333 9.91337C21.1748 10.0654 21.1319 10.2559 21.1194 10.4367C21.1029 10.6961 21.1254 10.9626 21.1223 11.2263C21.1139 12.0441 21.1543 12.8783 21.0759 13.6749C20.974 14.7074 20.8401 15.74 20.6203 16.728C20.5544 17.024 20.5344 17.3516 20.4935 17.6643C20.455 17.9622 20.427 18.2653 20.376 18.5563C20.2966 19.0158 20.1947 19.4639 20.1158 19.9251C20.0883 20.0877 20.0868 20.2754 20.0988 20.4468C20.1188 20.7297 20.2152 20.9324 20.371 21.0232C20.5114 21.1053 20.6138 20.9779 20.6992 20.7988C20.8001 20.5848 20.898 20.3664 21.0014 20.1541C21.0459 20.0632 21.0988 19.9854 21.1482 19.9016L21.2076 19.9601C21.1727 20.2081 21.1352 20.4572 21.1027 20.708C21.0783 20.8914 21.0453 21.0775 21.0438 21.2627C21.0387 21.944 20.9838 22.5932 20.7755 23.1932C20.6887 23.4449 20.6391 23.7872 20.7871 24.0073C20.9484 24.2485 20.9295 24.5114 20.8999 24.7997C20.8075 25.7072 20.7136 26.6131 20.6157 27.5181C20.5987 27.6754 20.5712 27.8326 20.5323 27.9767C20.3974 28.4721 20.3515 29.004 20.2835 29.5324C20.2111 30.1003 20.3619 30.4602 20.5543 30.8176C20.6707 31.0351 20.7875 31.0578 20.9049 30.8454C21.0188 30.6402 21.1367 30.3991 21.1847 30.1361C21.2835 29.591 21.3899 29.0565 21.5298 28.5402C21.5647 28.4092 21.5842 28.2625 21.6017 28.121C21.6701 27.5629 21.7346 27.0037 21.801 26.4454C21.8634 25.917 21.9264 25.3892 21.9978 24.7927C22.2645 25.0111 22.3934 24.7054 22.5323 24.4154C22.5632 24.3491 22.6222 24.3238 22.6821 24.2668C22.7381 24.527 22.7665 24.7656 22.8375 24.9561C22.9084 25.1455 23.0233 25.2861 23.1167 25.4514L23.1741 25.5945C23.3849 26.2768 23.6182 26.9496 23.6492 27.748C23.6686 28.2441 23.81 28.5989 24.0193 28.8924C24.2671 29.2392 24.4075 29.7073 24.4694 30.2262C24.5553 30.9373 24.7601 31.5322 25.0039 32.0895C25.1123 32.3374 25.1637 32.5881 25.1827 32.887C25.1982 33.1315 25.2107 33.3955 25.2727 33.6084C25.3765 33.9659 25.456 34.3196 25.4729 34.7249C25.4849 35.021 25.6188 35.1974 25.7776 35.2018C25.9544 35.2053 26.0409 35.0767 26.0839 34.7405C26.0913 34.6847 26.0924 34.6252 26.0979 34.5379C26.3492 34.5449 26.4735 34.4287 26.5055 34.0915C26.5494 33.6303 26.5779 33.162 26.4745 32.7052C26.4251 32.4877 26.3846 32.2641 26.3427 32.0414C26.0969 30.7344 25.8607 29.4269 25.8197 28.0327C25.8092 27.7034 25.7073 27.3574 25.6029 27.0682C25.4256 26.5791 25.2916 26.0839 25.2388 25.5012C25.1668 24.7131 24.9825 24.4362 24.5334 24.3053C24.3646 24.2555 24.2117 24.1645 24.1053 23.9007C23.864 23.3025 23.6158 22.7128 23.372 22.1196C23.3375 22.0357 23.3111 21.944 23.2811 21.8558C23.1997 21.6199 23.1238 21.3779 23.0368 21.149C22.861 20.6834 22.9584 20.1357 23.2602 19.933C23.4479 19.808 23.6368 19.6911 23.8241 19.5653C24.3576 19.208 24.7277 18.6018 24.8661 17.5912C24.947 17.0051 25.1204 16.5079 25.47 16.2773C25.5404 16.231 25.6029 16.1507 25.6713 16.0966C26.0205 15.8144 26.2717 15.3601 26.4351 14.7565C26.4985 14.5233 26.6019 14.3722 26.7128 14.2079C26.9486 13.8594 27.166 13.4725 27.3847 13.0898C27.4506 12.9754 27.4931 12.8268 27.4401 12.6522C27.3911 12.4892 27.3116 12.4176 27.2117 12.4474Z" fill="#11B0C8"/>
<path d="M64.6319 31.4593C64.7149 31.2584 64.7418 31.0225 64.7013 30.7903C64.636 30.4145 64.5626 30.0408 64.4751 29.6782C64.3317 29.0903 64.2498 28.5068 64.3088 27.8473C64.4011 26.8095 64.2698 25.8232 63.9081 24.9794C63.7532 24.6187 63.6967 24.277 63.7307 23.8481C63.7523 23.5756 63.7508 23.2952 63.6589 23.0393C63.4491 22.4567 63.2478 21.8661 62.8851 21.5141C62.7582 21.3919 62.7627 21.1288 62.8876 20.9831C62.964 20.8948 63.055 20.8485 63.1354 20.7699C63.2807 20.6293 63.4336 20.5017 63.5644 20.3253C63.7273 20.1051 63.9002 19.9505 64.1028 19.8832C64.1812 19.8569 64.2567 19.7844 64.3286 19.7164C64.5734 19.4858 64.7338 19.1162 64.8737 18.7083C64.9551 18.4707 64.9846 18.2217 64.9675 17.9517C64.9566 17.7771 64.9551 17.597 64.9276 17.4303C64.8886 17.1962 64.8606 16.9227 64.7722 16.755C64.6054 16.4361 64.498 16.0613 64.3662 15.7094C64.2862 15.4936 64.2568 15.3267 64.3433 15.0777C64.4706 14.7126 64.4207 14.3867 64.2428 14.0932C64.046 13.7717 63.8207 13.6266 63.552 13.7333C63.3277 13.8214 63.1199 13.7289 62.9216 13.5525C62.6103 13.2747 62.4106 13.3018 62.1818 13.7526C61.9495 14.2112 61.7447 14.7135 61.5289 15.1975C61.4949 15.2733 61.464 15.3537 61.4245 15.4498C61.2941 15.2401 61.3046 14.9877 61.2876 14.7467C61.2496 14.2103 61.2188 13.6713 61.1572 13.1437C61.1208 12.8302 60.9999 12.6938 60.8595 12.692C60.7062 12.6886 60.5644 12.8807 60.5178 13.183C60.4989 13.3035 60.5068 13.4381 60.5044 13.5665C60.4964 13.9448 60.5013 14.3248 60.4789 14.7012C60.4364 15.4272 60.3456 16.1488 60.3351 16.8756C60.324 17.6732 60.2571 18.4444 60.1602 19.2193C60.1277 19.4822 60.1448 19.7679 60.1547 20.0421C60.1672 20.3951 60.2876 20.6248 60.4609 20.7915C60.6767 20.9978 60.7282 21.2538 60.6358 21.6633C60.5843 21.8948 60.5134 22.1124 60.462 22.3447C60.3736 22.7432 60.359 23.1535 60.4814 23.5345C60.6137 23.9477 60.6178 24.3442 60.5433 24.7968C60.4849 25.1531 60.4609 25.5541 60.4884 25.9199C60.5237 26.3918 60.5263 26.8512 60.4938 27.3168C60.4803 27.5054 60.4674 27.7003 60.4813 27.8854C60.4928 28.033 60.5278 28.2016 60.5848 28.309C60.798 28.7108 61.1398 28.6155 61.2611 28.0941C61.3311 27.7911 61.3595 27.4416 61.3625 27.1131C61.3676 26.6037 61.4264 26.1382 61.5459 25.6717C61.6328 25.3327 61.6642 24.9449 61.7047 24.5745C61.7286 24.3509 61.7217 24.1185 61.7271 23.9535C61.7865 24.0304 61.8604 24.1195 61.9319 24.2155C62.2706 24.6688 62.5149 25.2566 62.7232 25.8988C62.8012 26.1391 62.892 26.3793 63.0039 26.5706C63.2437 26.9795 63.3352 27.4606 63.3191 28.0355C63.3116 28.3098 63.3126 28.6078 63.3666 28.8569C63.4706 29.3398 63.5405 29.8307 63.5963 30.3356C63.6483 30.7977 63.7522 31.2346 63.956 31.5681C64.1703 31.9189 64.4626 31.8707 64.6319 31.4593ZM62.6872 18.7473C62.6223 18.9587 62.5169 19.1309 62.42 19.3388C62.3611 19.2663 62.3082 19.234 62.2867 19.1694C62.1897 18.8777 62.0744 18.6217 61.923 18.4041C61.8675 18.3247 61.8665 18.1316 61.8355 17.962C62.0958 17.8564 62.2397 17.6152 62.3275 17.2327C62.4769 16.5872 62.5603 16.5208 63.0608 16.6037C62.6931 17.0379 62.6957 17.5559 62.7746 18.1368C62.7998 18.3212 62.7427 18.5649 62.6872 18.7473Z" fill="#11B0C8"/>
<path d="M64.7059 20.9375C64.5141 21.0256 64.4337 21.2589 64.4716 21.5926C64.5156 21.9804 64.65 22.1998 64.8742 22.1648C65.07 22.1343 65.2293 22.2566 65.4023 22.371C65.6625 22.5439 65.8613 22.9702 66.1865 22.9014C66.1661 23.014 66.1611 23.09 66.1406 23.1493C66.0097 23.5398 65.9612 23.9582 65.9532 24.408C65.9492 24.6125 65.8918 24.8301 65.8304 25.0126C65.748 25.259 65.7216 25.5052 65.764 25.7691C65.7974 25.9795 65.8359 26.1935 65.8969 26.3823C65.9693 26.6067 65.9732 26.7902 65.9108 27.0329C65.7774 27.5572 65.7415 28.1024 65.9069 28.6413C65.9333 28.7286 65.9542 28.8368 65.9518 28.9329C65.9333 29.5601 65.9623 30.2126 65.8719 30.8068C65.7455 31.6332 65.7344 32.4536 65.7455 33.286C65.7505 33.6669 65.7954 34.0477 65.9313 34.3621C66.0617 34.6626 66.2241 34.6373 66.3325 34.3131C66.3575 34.2388 66.3709 34.1517 66.3859 34.0676C66.4593 33.6501 66.5317 33.2317 66.6022 32.8107C66.6397 32.587 66.6876 32.3644 66.7036 32.1354C66.7706 31.1501 66.8345 30.163 66.886 29.175C66.9144 28.6264 66.9643 28.1024 67.1527 27.6428C67.1951 27.539 67.2331 27.4079 67.2386 27.2846C67.2566 26.8635 67.2901 26.4364 67.1991 26.024C67.1572 25.8354 67.1621 25.6553 67.2196 25.4772C67.3914 24.9418 67.4079 24.3687 67.366 23.7746C67.3465 23.5038 67.3489 23.2269 67.3414 22.9536L67.4025 22.8758C67.4893 22.9466 67.5928 22.9849 67.6602 23.0933C67.9474 23.5554 68.2971 23.6027 68.6473 23.5083C68.8411 23.4551 68.9865 23.5074 69.1348 23.7032C69.3266 23.9572 69.5469 24.0884 69.7882 24.105C70.1274 24.1258 70.2568 23.9224 70.2722 23.3485C70.3407 23.2621 70.4132 23.1861 70.4761 23.0908C70.6484 22.8278 70.6644 22.5029 70.5031 22.2136C70.4243 22.0712 70.3208 21.9489 70.2148 21.8791C70.0755 21.7874 69.9246 21.7374 69.7762 21.7034C69.6699 21.6791 69.59 21.6161 69.5195 21.472C69.3822 21.1882 69.1988 21.0589 68.9876 21.0527C68.8293 21.0484 68.6704 21.0518 68.5085 21.0518C68.2952 20.5382 68.2298 20.5015 67.8327 20.5941C67.6624 20.6325 67.4876 20.7077 67.2886 20.5557C67.3292 20.3303 67.3557 20.1006 67.4105 19.896C67.5754 19.2812 67.6867 18.6372 67.7557 17.9752C67.8307 17.2546 67.9106 16.5409 68.1053 15.8821L68.1203 15.7983C68.1638 15.2926 68.1723 14.806 67.9241 14.4242C67.7262 14.121 67.7217 14.0416 67.8531 13.645C67.9875 13.2397 68.1338 12.8457 68.2557 12.4298C68.3267 12.1879 68.3881 11.9179 68.4041 11.6515C68.435 11.1161 68.2252 10.8094 67.9175 10.8951C67.6422 10.9719 67.4774 11.2812 67.368 11.7066C67.2897 12.0115 67.2047 12.3111 67.1212 12.6142C66.9074 13.3899 66.6822 14.156 66.6192 15.0322C66.5968 15.3459 66.5278 15.6507 66.4674 15.9529C66.3741 16.4255 66.2976 16.9042 66.3026 17.4083C66.3056 17.7525 66.2626 18.0723 66.1752 18.3815C66.0573 18.8007 66.0258 19.2377 66.0788 19.7049C66.1382 20.2291 66.0452 20.4152 65.7466 20.4177C65.5837 20.4186 65.4275 20.4447 65.2976 20.6361C65.1832 20.8047 65.0503 20.8675 64.9044 20.8825C64.8378 20.8893 64.7703 20.9078 64.7059 20.9375Z" fill="#11B0C8"/>
<path d="M19.2602 24.6246C18.961 25.001 18.7656 25.0047 18.4624 24.6342C18.373 24.5251 18.2886 24.4037 18.1982 24.2987C18.0399 24.1136 17.874 24.0524 17.7116 24.2831C17.6132 24.422 17.5133 24.4185 17.4084 24.3242C17.232 24.1643 17.0672 24.2256 16.9099 24.4002C16.7896 24.5321 16.6776 24.6893 16.5552 24.8134C16.3865 24.9828 16.23 24.8266 16.2276 24.4876C16.2265 24.3739 16.2396 24.2516 16.266 24.1478C16.3199 23.9347 16.3839 23.7293 16.4493 23.5266C16.5317 23.2733 16.6361 23.0367 16.7021 22.771C16.8535 22.1596 16.798 21.8575 16.4929 21.5035C16.4584 21.4634 16.4234 21.4249 16.3679 21.3619C16.4113 20.7959 16.6192 20.4631 16.8389 20.1407C17.1336 19.7091 17.4313 19.2829 17.7151 18.8294C17.874 18.5752 17.9793 18.2574 17.8684 17.8608C18.0268 17.686 18.1861 17.6196 18.3575 17.6222C18.4999 17.624 18.6423 17.6249 18.7846 17.6152C19.1443 17.5908 19.458 17.3908 19.6788 16.8649C19.7722 16.6412 19.8156 16.3862 19.7368 16.1232C19.6648 15.8813 19.5409 15.7712 19.3841 15.7834C19.1088 15.8042 18.8332 15.8114 18.5589 15.8542C18.4345 15.8742 18.3341 15.876 18.2457 15.6899C18.1488 15.4864 18.014 15.4191 17.8616 15.4357C17.4834 15.4785 17.1417 15.7004 16.8525 16.125C16.7632 16.2561 16.6747 16.47 16.6602 16.6631C16.6248 17.1505 16.4719 17.3777 16.2147 17.4588L16.0953 17.5235C15.5948 17.7742 15.4294 18.1297 15.3609 19.0207C15.3329 19.3928 15.3045 19.7938 15.2066 20.1153C15.0667 20.5695 14.9933 21.0281 14.9773 21.532C14.9673 21.865 14.8934 22.1524 14.7636 22.4003C14.6732 22.5724 14.5708 22.7393 14.5108 22.943C14.4319 23.2093 14.364 23.502 14.3365 23.7972C14.3015 24.165 14.4388 24.4051 14.6507 24.433C14.6887 24.4382 14.7266 24.4339 14.7885 24.4339C14.7341 24.5974 14.6797 24.7126 14.6537 24.8463C14.6032 25.1057 14.5442 25.3714 14.5313 25.6394C14.5108 26.0587 14.6246 26.2544 14.8689 26.2876C14.9857 26.3042 15.1032 26.2947 15.2205 26.299C15.4644 26.3095 15.5408 26.4501 15.4933 26.8676C15.4504 27.2529 15.4943 27.5847 15.6767 27.8031C15.845 28.0068 15.8795 28.2723 15.8835 28.593C15.886 28.7966 15.898 29.0044 15.9304 29.1993C15.9548 29.3459 16.0058 29.4928 16.0657 29.6063C16.1686 29.8037 16.3125 29.8254 16.4229 29.6465C16.5182 29.4902 16.6032 29.2996 16.6657 29.0987C16.761 28.7912 16.8245 28.4523 16.9179 28.1431C16.9918 27.9003 17.0782 27.6625 17.1796 27.4539C17.268 27.2712 17.3784 27.1874 17.5357 27.2914C17.6316 27.355 17.768 27.3132 17.8704 27.245C17.9928 27.1639 18.1092 27.0267 18.2071 26.8729C18.3774 26.603 18.5588 26.5289 18.784 26.5944C19.3011 26.7446 19.7766 26.1471 19.8595 25.2439C19.8769 25.0578 19.8544 24.8236 19.8 24.6639C19.6848 24.3225 19.4975 24.3259 19.2602 24.6246Z" fill="#11B0C8"/>
<path d="M59.2761 22.2215C59.0928 21.8345 59.0478 21.4642 59.1712 21.0133C59.2496 20.7234 59.3306 20.4289 59.379 20.1214C59.4994 19.3666 59.4905 18.6224 59.2736 17.9087C59.2282 17.7593 59.2067 17.5784 59.1967 17.4082C59.1737 17.0457 59.1028 16.7442 58.9489 16.4796C58.6772 16.0114 58.3845 15.6209 58.0193 15.3964C57.5168 15.0889 57.0503 15.1911 56.6616 15.8173C56.4118 16.2201 56.219 16.7294 55.9966 17.1845C55.9277 17.3251 55.8528 17.4693 55.7649 17.5671C55.3758 17.9995 55.0726 18.5419 54.9966 19.3736C54.9516 19.8602 54.8543 20.282 54.6659 20.6708C54.4241 21.1704 54.4046 21.9215 54.6124 22.3874C54.8867 23.0031 54.9361 23.6827 54.8803 24.42C54.8583 24.7092 54.8478 25.0009 54.8288 25.3531C54.8502 25.615 54.8568 25.941 54.9072 26.2449C54.9655 26.5977 55.1264 26.7829 55.3048 26.7035C55.5131 26.609 55.658 26.7776 55.8153 26.9498C55.9407 27.0878 56.0705 27.217 56.2065 27.3202C56.2864 27.3814 56.3428 27.4459 56.3848 27.5902C56.5191 28.0504 56.6839 28.2042 56.9807 28.1039C57.2085 28.0261 57.4262 27.8733 57.666 27.9518C57.7189 27.9693 57.7869 27.9335 57.8348 27.8838C58.0785 27.6312 58.3573 27.4346 58.5512 27.0931C58.8968 26.4842 59.2125 25.8117 59.4993 25.1129C59.6706 24.6953 59.797 24.2026 59.7171 23.6296C59.6413 23.0855 59.471 22.6347 59.2761 22.2215ZM57.4473 23.7082C57.5712 24.1563 57.5632 24.1634 57.5383 24.6044C57.3838 24.6307 57.2216 24.6578 57.0772 24.6805C56.9568 24.3538 56.8504 24.0612 56.7421 23.7711C56.6501 23.5283 56.5362 23.3377 56.3564 23.3527C56.2245 23.3632 56.179 23.2269 56.1576 23.0383C56.1347 22.8381 56.1157 22.6356 56.0922 22.4355C56.0258 21.8737 56.1012 21.3819 56.347 21.0011C56.5873 20.6288 56.6837 20.2017 56.6293 19.6357C56.5862 19.1884 56.7671 18.9219 56.9843 18.7358C56.9469 19.0172 56.9059 19.2975 56.8745 19.5805C56.8094 20.1554 56.9464 20.5764 57.2117 20.8927C57.2741 20.9668 57.3425 21.0238 57.4045 21.0989C57.5638 21.291 57.5962 21.4535 57.5353 21.7759C57.5069 21.9279 57.466 22.0737 57.4309 22.2231C57.3145 22.7222 57.3095 23.2121 57.4473 23.7082Z" fill="#11B0C8"/>
<path d="M13.2889 19.7957C13.2794 19.2454 13.3334 18.7196 13.4447 18.2067C13.5272 17.8276 13.5701 17.4266 13.4652 17.052C13.3487 16.6361 13.3219 16.2204 13.3683 15.7766V15.6011C13.3553 15.2648 13.2644 15.1005 13.0711 15.069C12.8988 15.0429 12.7404 15.1109 12.5946 15.2813C12.5436 15.3416 12.4763 15.3984 12.4183 15.3922C12.1141 15.3599 12.0007 15.5075 12.0391 16.0202C12.0801 16.5758 12.0421 17.0965 11.9312 17.6117C11.9137 17.693 11.9092 17.7821 11.8987 17.8686C11.8607 18.1839 11.8857 18.453 12.0751 18.6025C12.1955 18.6976 12.2234 18.8846 12.203 19.0794C12.1835 19.263 12.14 19.4402 12.1 19.615C12.0321 19.9138 11.9482 20.202 11.8898 20.505C11.7943 21.0039 11.8239 21.4617 12.0806 21.8075C12.181 21.9429 12.2329 22.1202 12.2274 22.3386C12.2164 22.7755 12.2159 23.2149 12.1815 23.6464C12.1585 23.9416 12.127 24.2291 12.2019 24.5061C12.2703 24.7576 12.2814 25.0136 12.2464 25.2757C12.2039 25.5972 12.2424 25.8854 12.3443 26.1519C12.4367 26.3922 12.4702 26.6568 12.4657 26.9433C12.4627 27.2063 12.4652 27.4702 12.4652 27.7339H12.4583C12.4583 28.0412 12.4527 28.3496 12.4598 28.6572C12.4683 29.0294 12.5157 29.3857 12.6695 29.6644C12.8399 29.9719 13.0432 29.9359 13.1736 29.5779C13.208 29.4801 13.2401 29.3657 13.247 29.2538C13.2695 28.9071 13.3035 28.5541 13.289 28.2091C13.2555 27.3739 13.3035 26.5739 13.5342 25.8242C13.5736 25.6986 13.5856 25.5473 13.6151 25.4101C13.7405 24.8389 13.7015 24.2912 13.5392 23.761L13.5158 23.683C13.4339 23.3983 13.4368 23.1258 13.5367 22.8498C13.6171 22.6279 13.6776 22.3824 13.762 22.1648C13.9534 21.6766 13.9263 21.0441 13.5537 20.6624C13.3468 20.4509 13.2949 20.1661 13.2889 19.7957Z" fill="#11B0C8"/>
<path d="M12.3248 13.4852C12.5206 13.7647 12.7489 13.8661 12.9831 13.7176C13.2249 13.5647 13.3413 13.21 13.3602 12.7637C13.3857 12.1645 13.4346 11.5775 13.517 10.9913C13.6054 10.3606 13.3857 9.97004 12.983 10.068C13.0045 9.85658 13.0265 9.68898 13.0375 9.51858C13.0725 9.01367 12.8597 8.54375 12.607 8.59439C12.4142 8.63286 12.2348 8.75696 12.0979 9.02249C11.945 9.3195 11.8916 9.78327 12.017 10.1171C12.1294 10.4124 12.0965 10.649 12.011 10.926C11.9236 11.2082 11.8407 11.5008 11.7873 11.8048C11.7158 12.2181 11.7458 12.6216 11.9426 12.9309C12.0661 13.1236 12.1969 13.3025 12.3248 13.4852Z" fill="#11B0C8"/>
<path d="M69.3934 36.7424V36.8264H69.2551V37.4571H69.1992V36.8264H69.0607V36.7424" fill="#11B0C8"/>
<path d="M69.4314 36.7424H69.5103L69.6287 37.3462L69.7461 36.7424H69.8245V37.4571H69.7726V37.0388L69.7731 36.9619V36.8543L69.6557 37.4571H69.6012L69.4808 36.8543V36.8754L69.4838 36.9557V37.4571H69.4314" fill="#11B0C8"/>
</g>
<defs>
<clipPath id="clip0">
<rect width="80" height="41" fill="white"/>
</clipPath>
</defs>
</svg>
