<svg width="33" height="27" viewBox="0 0 33 27" fill="none" xmlns="http://www.w3.org/2000/svg">
<path d="M28.3041 4.20156C29.7432 3.30057 30.6961 2.07081 31.1628 0.506803C29.8484 1.23178 28.4379 1.7586 26.9753 2.07081C25.7232 0.697535 24.138 0 22.2375 0C20.3798 0 18.8106 0.664838 17.53 1.95818C16.9115 2.57235 16.4225 3.30883 16.093 4.1225C15.7634 4.93618 15.6003 5.80991 15.6135 6.69016C15.6135 7.25145 15.6829 7.75281 15.8219 8.17787C10.3431 7.98714 5.80829 5.66929 2.23533 1.20797C1.62974 2.29968 1.32695 3.41138 1.32695 4.56122C1.32695 6.92449 2.30479 8.79729 4.25692 10.1724C3.14371 10.0761 2.1623 9.7891 1.32695 9.31863C1.32695 11.0062 1.8132 12.4158 2.78748 13.6564C3.7339 14.8654 5.06766 15.6957 6.55459 16.0015C5.99887 16.1468 5.41288 16.2159 4.81085 16.2159C4.25514 16.2159 3.86151 16.1686 3.62818 16.0651C4.03784 17.4402 4.81086 18.5555 5.92763 19.4093C7.03165 20.2642 8.3746 20.7371 9.76064 20.7589C7.38816 22.6572 4.67549 23.5963 1.60659 23.5963C0.854946 23.5963 0.322386 23.5854 0 23.5273C3.02259 25.529 6.38716 26.5227 10.1097 26.5227C13.9196 26.5227 17.2859 25.5381 20.2159 23.569C23.1459 21.6109 25.3082 19.1949 26.6975 16.3503C28.0714 13.5978 28.7867 10.5526 28.785 7.46398V6.61386C30.0655 5.65098 31.1741 4.47061 32.0623 3.12437C30.8629 3.65454 29.5987 4.01688 28.3041 4.20156Z" fill="#305C82"/>
</svg>
