<svg width="22" height="20" viewBox="0 0 22 20" fill="none" xmlns="http://www.w3.org/2000/svg">
<path fill-rule="evenodd" clip-rule="evenodd" d="M0 2.5C0 1.83696 0.231785 1.20107 0.644365 0.732233C1.05694 0.263392 1.61652 0 2.2 0H19.8C20.3835 0 20.9431 0.263392 21.3556 0.732233C21.7682 1.20107 22 1.83696 22 2.5C22 3.16304 21.7682 3.79893 21.3556 4.26777C20.9431 4.73661 20.3835 5 19.8 5H2.2C1.61652 5 1.05694 4.73661 0.644365 4.26777C0.231785 3.79893 0 3.16304 0 2.5ZM0 10C0 9.33696 0.231785 8.70107 0.644365 8.23223C1.05694 7.76339 1.61652 7.5 2.2 7.5H19.8C20.3835 7.5 20.9431 7.76339 21.3556 8.23223C21.7682 8.70107 22 9.33696 22 10C22 10.663 21.7682 11.2989 21.3556 11.7678C20.9431 12.2366 20.3835 12.5 19.8 12.5H2.2C1.61652 12.5 1.05694 12.2366 0.644365 11.7678C0.231785 11.2989 0 10.663 0 10ZM0 17.5C0 16.837 0.231785 16.2011 0.644365 15.7322C1.05694 15.2634 1.61652 15 2.2 15H19.8C20.3835 15 20.9431 15.2634 21.3556 15.7322C21.7682 16.2011 22 16.837 22 17.5C22 18.163 21.7682 18.7989 21.3556 19.2678C20.9431 19.7366 20.3835 20 19.8 20H2.2C1.61652 20 1.05694 19.7366 0.644365 19.2678C0.231785 18.7989 0 18.163 0 17.5Z" fill="black"/>
</svg>
